/* XPM */
static char * Exit_xpm[] = {
"100 100 91 1",
" 	c #1EBC73",
".	c #26BD75",
"+	c #25BC79",
"@	c #37BE7A",
"#	c #1DBB76",
"$	c #18B390",
"%	c #31BE76",
"&	c #21BC73",
"*	c #91DB69",
"=	c #7CD26D",
"-	c #32BE72",
";	c #0EAF9B",
">	c #20BB76",
",	c #2DB690",
"'	c #32BE73",
")	c #7CD170",
"!	c #1FBA72",
"~	c #000000",
"{	c #1EBB73",
"]	c #1EBA72",
"^	c #F8F8F8",
"/	c #1FB670",
"(	c #21B46F",
"_	c #26B570",
":	c #22B871",
"<	c #22B56F",
"[	c #1FB56F",
"}	c #21B770",
"|	c #D63D2E",
"1	c #D9D9E1",
"2	c #EFEFF5",
"3	c #23B06D",
"4	c #1EB670",
"5	c #25B46F",
"6	c #20B56F",
"7	c #3B8B5F",
"8	c #1FB36E",
"9	c #299E64",
"0	c #30744F",
"a	c #29955E",
"b	c #26B16E",
"c	c #20B06C",
"d	c #1FB06C",
"e	c #20AB69",
"f	c #23925B",
"g	c #257A4E",
"h	c #227148",
"i	c #21A163",
"j	c #88CD63",
"k	c #21B06F",
"l	c #20A968",
"m	c #1FAA68",
"n	c #20A163",
"o	c #1F9F62",
"p	c #1EA062",
"q	c #259C61",
"r	c #3B8C5F",
"s	c #219F62",
"t	c #159E8C",
"u	c #31B26C",
"v	c #20AF6B",
"w	c #20AD6B",
"x	c #21AC6A",
"y	c #20AD6A",
"z	c #20AE6B",
"A	c #22A868",
"B	c #299F64",
"C	c #327B53",
"D	c #31B26B",
"E	c #22B06C",
"F	c #21A566",
"G	c #229B60",
"H	c #179A89",
"I	c #20AC69",
"J	c #23935B",
"K	c #257C4F",
"L	c #25734A",
"M	c #25744B",
"N	c #25774C",
"O	c #217467",
"P	c #35B273",
"Q	c #20AA68",
"R	c #1FAA69",
"S	c #20A264",
"T	c #209F62",
"U	c #20A062",
"V	c #22955C",
"W	c #21985E",
"X	c #21A063",
"Y	c #22A164",
"Z	c #13A491",
"                 ...........+...@                           #$%& .                                  ",
"                           #$%& .  *                 #       %=- .  *                *              ",
"  *                 #       %=- .  ;        *      &%$#      &-& .  ;        *       ;        *     ",
"  ;        *      &%$#      &-& .            ;     -=%     #     .            ;                ;    ",
"            ;     -=%     #     .                  &-&    >,>    .                                  ",
"                  &-&    >,>    .                         ')'    .                                  ",
"                         ')'    .                         &-&    .                                  ",
"                         &-&    .      *                         .      *                *          ",
"      *                         .      ;             #           .      ;                ;          ",
"      ;             #           .             *     #$%&       # .             *                *   ",
"             *     #$%&       # .            ;       %=-      >,>.            ;                ;    ",
"            ;       %=-      >,>.   *                &-&      ')'.   *                *             ",
"   *                &-&      ')'.    ;                        &-&.    ;                ;            ",
"    ;                        &-&.                 ...............@                                  ",
"                 ...............@                                                                   ",
"                                                                                                    ",
"                                   *               *                *                *              ",
"  *               *                ;        *      ;        *       ;        *       ;        *     ",
"  ;        *      ;        *                 ;               ;                ;                ;    ",
"            ;               ;                                                                       ",
"                                                                                                    ",
"                                                                                                    ",
"                                       *               *                *                *          ",
"      *               *                ;               ;                ;                ;          ",
"      ;               ;                       *               *                *                *   ",
"             *               *               ;               ;                ;                ;    ",
"            ;               ;       *               *                *                *             ",
"   *               *                 ;               ;                ;                ;            ",
"    ;               ;                      !~~~~~~~~~~~~                                            ",
"                                         {~~~~~~~~~~~~~~~~                                          ",
"                                       ]~~~~^^^^^^^^^^^^~~~~/                                       ",
"                                   *(~~~~^^^^^^^^^^^^^^^^^~~~!       *               *              ",
"  *                *               ;~~~^^^^^^^^^^^^^^^^^^^^~~~_      ;        *      ;        *     ",
"  ;        *       ;        *      ~~~^^^^^^^^^^^^^^^^^^^^^^^~~                ;               ;    ",
"            ;                ;    ~~~^^^^^^^^^^^^^^^^^^^^^^^^^~~                                    ",
"                                 ~~^^^^^^^^^^^^^^^^^^^^^^^^^^^^~~:                                  ",
"                                ~~~^^^^^^^^^^^^^^^^^^^^^^^^^^^^^~~<                                 ",
"                                ~~^^^^^^^^^^^^^^^^^^^^^^^^^^^^^^^~~[     *               *          ",
"      *                *       ~~^^^^^^^^^^^^^^^^^^^^^^^^^^^^^^^^~~~     ;               ;          ",
"      ;                ;       ~^^^^^^^^^^^^^^^^^^^^^^^^^^^^^^^^^^~~            *               *   ",
"             *                ~~^^^^^^^^^^^^^^^^^^^^^^^^^^^^^^^^^^^~~          ;               ;    ",
"            ;                ;~^^^^^^^^^^^^^^^^^^^^^^^^^^^^^^^^^^^^~~}*               *             ",
"   *                *         ~^^^^^^^^^^^^^^^^^^^^^^^^^^^^^^^^^^^^^~~ ;               ;            ",
"    ;                ;       ~~^^^^^^^^^^^^^^^^^^^^^^^^^^^^^^^^^^^^^^~                              ",
"                             ~~^^^^^^^^^^^^^^^^^^^^^^^^^^^^^^^^^^^^^^~~                             ",
"                 ...........+~~|^^^^^^^^^^^^^^^^^^^^^^^^^^^^^^^^^^^^|~~                             ",
"                           #$~~||^^^^^^^^^^^^^^^^^^^^^^^^^^^^^^^^^^||~~              *              ",
"  *                 #       %~~|||^^^^^^^^^^^^^^^^^^^^^^^^^^^^^^^^|||~~      *       ;        *     ",
"  ;        *      &%$#      &~~||||^^^^^^^^^^^||||||||^^^^^^^^^^^||||~~       ;                ;    ",
"            ;     -=%     #  ~~1|||||^^^^^^^^||~~~~~~||^^^^^^^^|||||1~~                             ",
"                  &-&    >,> ~~11||||||^^^^^||~~1221~~||^^^^^||||||11~~                             ",
"                         ')' ~~111|||||||^^||~~112211~~||^^||||||1111~~                             ",
"                         &-&  ~11111|||||||||~11222211~|||||||||1111~~  *                *          ",
"      *                       ~~111111|||||||~22222222~|||||||111111~~  ;                ;          ",
"      ;             #         3~11111111|||||~22222222~|||||1111111~~          *                *   ",
"                 ...........+..~~1111111111||~11222211~||111111111~~~                               ",
"                           #$%& ~~1111111111|~~112211~~|111111111~~~4                               ",
"  *                 #       %=- .~~111111111||~~1221~~||111111111~~~*                *              ",
"  ;        *      &%$#      &-& .~~1111111111||~~~~~~||111111111~~~ ;        *       ;        *     ",
"            ;     -=%     #     . ~~1111111111||||||||111111111~~~}           ;                ;    ",
"                  &-&    >,>    .  ~111111111111111111111111111~~5                                  ",
"                         ')'    .  ~~1111111111111111111111111~~                                    ",
"                         &-&    .   ~~11111111111111111111111~~6                                    ",
"      *                         .   ~~~~11111111111111111111~~7         *                *          ",
"      ;             #           .  8(9~~~~~11111111111111~~~~0a         ;                ;          ",
"             *     #$%&       # bcccdefgh~~~~~11111111~~~~~~gfijcc             *                *   ",
"            ;       %=-      >,kbcccclmnopqr~~~~~~~~~~~~~qponstcccc           ;                ;    ",
"   *                &-&      ')ubcccjvwxyzABC~~~~~~~~~~CBAzyxwvccccc *                *             ",
"    ;                        &DEbcFGFHccccdIJKLMNNNNMLOJidcccccccccc  ;                ;            ",
"                 .............bbPccGFFcccccQRSTTUUUUTVWXQccccccccccc                                ",
"                               ccccccccccccvwxxxxxxxYxxwvccFccccccc                                 ",
"                               FFccccccccccccccFcccccccccccccccccc                                  ",
"  *               *             cccjccccccccccccccccjcccccccccccc   *                *              ",
"  ;        *      ;        *     ccZccccccccjcccccccZccccccccjcc    ;        *       ;        *     ",
"            ;               ;      ccccccccccZcccccccccccccccc;               ;                ;    ",
"                                      ccccccccccccccccccccccc                                       ",
"                                          cccccccccccccccc                                          ",
"                                               cccccc                                               ",
"      *               *                *                *               *                *          ",
"      ;               ;                ;                ;               ;                ;          ",
"             *               *                *                *               *                *   ",
"            ;               ;                ;                ;               ;                ;    ",
"   *               *                *                *               *                *             ",
"    ;               ;                ;                ;               ;                ;            ",
"                                                                                                    ",
"                                                                                                    ",
"                                                                                                    ",
"  *                *                *               *                *               *              ",
"  ;        *       ;        *       ;        *      ;        *       ;        *      ;        *     ",
"            ;                ;                ;               ;                ;               ;    ",
"                                                                                                    ",
"                                                                                                    ",
"                                                                                                    ",
"      *                *                *               *                *               *          ",
"      ;                ;                ;               ;                ;               ;          ",
"             *                *                *               *                *               *   ",
"            ;                ;                ;               ;                ;               ;    ",
"   *                *                *               *                *               *             ",
"    ;                ;                ;               ;                ;               ;            ",
"                                                                                                    "};
