/* XPM */
static char * Grass_floor2_xpm[] = {
"100 100 91 1",
" 	c #1EBC73",
".	c #26BD75",
"+	c #25BC79",
"@	c #37BE7A",
"#	c #1DBB76",
"$	c #18B390",
"%	c #31BE76",
"&	c #21BC73",
"*	c #91DB69",
"=	c #7CD26D",
"-	c #32BE72",
";	c #0EAF9B",
">	c #20BB76",
",	c #2DB690",
"'	c #32BE73",
")	c #7CD170",
"!	c #202429",
"~	c #292429",
"{	c #94AEFF",
"]	c #6D80B7",
"^	c #202029",
"/	c #6879B7",
"(	c #CDE6F6",
"_	c #758DEB",
":	c #101831",
"<	c #8BA5FF",
"[	c #A1BAF1",
"}	c #5A6175",
"|	c #4F63BD",
"1	c #9CBAFF",
"2	c #CDEAFF",
"3	c #7B8FDE",
"4	c #96B7F6",
"5	c #6A81DE",
"6	c #7B91E6",
"7	c #758FDE",
"8	c #29389C",
"9	c #5261CD",
"0	c #7B95EE",
"a	c #96B2F4",
"b	c #A1BBF1",
"c	c #94B6F6",
"d	c #5D6DD0",
"e	c #6271CD",
"f	c #7891E9",
"g	c #878998",
"h	c #202031",
"i	c #C5E2FF",
"j	c #5A6DD5",
"k	c #7891E3",
"l	c #5261BD",
"m	c #98B8F6",
"n	c #8095E0",
"o	c #99B8F6",
"p	c #6C91E2",
"q	c #6C91E3",
"r	c #45508B",
"s	c #1B6946",
"t	c #216A46",
"u	c #1A6946",
"v	c #5D94C9",
"w	c #293899",
"x	c #5C7EC4",
"y	c #201C31",
"z	c #6276D0",
"A	c #4A59BD",
"B	c #6A86C3",
"C	c #444E75",
"D	c #8BB2FF",
"E	c #7B94E3",
"F	c #94B2F6",
"G	c #4F5EBD",
"H	c #316983",
"I	c #326A84",
"J	c #29349C",
"K	c #94B6FF",
"L	c #7389EE",
"M	c #181829",
"N	c #181C31",
"O	c #4884C9",
"P	c #5E75CD",
"Q	c #5E73CD",
"R	c #94B2FF",
"S	c #202439",
"T	c #686B7B",
"U	c #4A59C5",
"V	c #3C4691",
"W	c #394683",
"X	c #205144",
"Y	c #5269DE",
"Z	c #1E4C4F",
"                 ...........+...@                           #$%& .                                  ",
"                           #$%& .  *                 #       %=- .  *                *              ",
"  *                 #       %=- .  ;        *      &%$#      &-& .  ;        *       ;        *     ",
"  ;        *      &%$#      &-& .            ;     -=%     #     .            ;                ;    ",
"            ;     -=%     #     .                  &-&    >,>    .                                  ",
"                  &-&    >,>    .                         ')'    .                                  ",
"                         ')'    .                         &-&    .                                  ",
"                         &-&    .      *                         .      *                *          ",
"      *                         .      ;             #           .      ;                ;          ",
"      ;             #           .             *     #$%&       # .             *                *   ",
"             *     #$%&       # .            ;       %=-      >,>.            ;                ;    ",
"            ;       %=-      >,>.   *                &-&      ')'.   *                *             ",
"   *                &-&      ')'.    ;                        &-&.    ;                ;            ",
"    ;                        &-&.                 ...............@                                  ",
"                 ...............@                                                                   ",
"                                                                                                    ",
"                                   *               *                *                *              ",
"  *               *                ;        *      ;        *       ;        *       ;        *     ",
"  ;        *      ;        *                 ;               ;                ;                ;    ",
"            ;               ;                                                                       ",
"                                                                                                    ",
"                                                                                                    ",
"                                       *               *                *                *          ",
"      *               *                ;               ;                ;                ;          ",
"      ;               ;                       *               *                *                *   ",
"             *               *               ;               ;                ;                ;    ",
"            ;               ;       *               *                *                *             ",
"   *               *                 ;               ;                ;                ;            ",
"    ;               ;                                                                               ",
"                                                           !!!!                                     ",
"                                                           !!!!                                     ",
"                                   *                *    ~~{{]]~~    *               *              ",
"  *                *               ;        *       ;    ~~{{]]~~    ;        *      ;        *     ",
"  ;        *       ;        *                ;         ^^//((__::              ;               ;    ",
"            ;                ;                         ^^//((__::                                   ",
"                                                       ^^<<(([[}}::~~                               ",
"                                                       ^^<<(([[}}::~~                               ",
"                                       *       ~~~~~~~~||112233444455~~  *               *          ",
"      *                *               ;       ~~~~~~~~||112233444455~~  ;               ;          ",
"      ;                ;                   ~~~~6666666677883399446655~~         *               *   ",
"             *                *            ~~~~6666666677883399446655~~        ;               ;    ",
"            ;                ;      *    ~~00aabbbbccddeeff8811ffffgghh               *             ",
"   *                *                ;   ~~00aabbbbccddeeff8811ffffgghh;               ;            ",
"    ;                ;                   ~~aa22iijjkkccffff7777llllhh                               ",
"                                         ~~aa22iijjkkccffff7777llllhh                               ",
"                 ...........+...@      ~~66mm((jjnnoooo4466pqrr~~~~~~                               ",
"                           #$%& .  *   ~~66mm((jjnnoooo4466pprr~~~~~~                *              ",
"  *                 #       %=- .  ;   ~~66mmmmjj((oooo4466ppst& .  ;        *       ;        *     ",
"  ;        *      &%$#      &-& .      ~~66mmmmjj((oooo4466qpuu  .            ;                ;    ",
"            ;     -=%     #     .      ~~vv66ww66444444ffffll~~  .                                  ",
"                  &-&    >,>    .      ~~vv66ww66444444ffffll~~  .                                  ",
"                         ')'    .      ~~vv66ww66444466ffxxll~~  .                                  ",
"                         &-&    .      ~~vv66ww66444466ffxxll~~  .      *                *          ",
"      *                        yyyy!!!!zzAA88xxffffffffxxll~~    .      ;                ;          ",
"      ;             #          yyyy!!!!zzAA88xBffffffffxxll~~  # .             *                *   ",
"                 ...........+~~CCDD{{]]EEFF88GGxxxxxxxxllll~~                                       ",
"                           #$~~CCDD{{]]EEFF88GGxxxxxxxxllll~~                                       ",
"  *                 #       %~~HIHHJJKK[[((LLMMllllllll~~~~         *                *              ",
"  ;        *      &%$#      &~~HIHHJJKK[[((LLMMllllllll~~~~  *      ;        *       ;        *     ",
"            ;     -=%     #    NNOOPPJJ((__LLrr~~~~~~~~       ;               ;                ;    ",
"                  &-&    >,>   NNOOPPJJ((__LLrr~~~~~~~~                                             ",
"                         ')'    .~~ee88QQQQ((~~                                                     ",
"                         &-&    .~~ee88QQQQ((~~                                                     ",
"      *                         .~~GG88JJRR((~~         *               *                *          ",
"      ;             #           .~~GG88JJRR((~~         ;               ;                ;          ",
"             *     #$%&       # .  SSTTUUVVWW!!                *               *                *   ",
"            ;       %=-      >,>.  SSTTUUVVWW!!               ;               ;                ;    ",
"   *                &-&      ')'.   *XX^^UUYY!!      *               *                *             ",
"    ;                        &-&.    ZX^^UUYY!!       ;               ;                ;            ",
"                 ...............@        ~~~~                                                       ",
"                                         ~~~~                                                       ",
"                                                                                                    ",
"  *               *                *                *               *                *              ",
"  ;        *      ;        *       ;        *       ;        *      ;        *       ;        *     ",
"            ;               ;                ;                ;               ;                ;    ",
"                                                                                                    ",
"                                                                                                    ",
"                                                                                                    ",
"      *               *                *                *               *                *          ",
"      ;               ;                ;                ;               ;                ;          ",
"             *               *                *                *               *                *   ",
"            ;               ;                ;                ;               ;                ;    ",
"   *               *                *                *               *                *             ",
"    ;               ;                ;                ;               ;                ;            ",
"                                                                                                    ",
"                                                                                                    ",
"                                                                                                    ",
"  *                *                *               *                *               *              ",
"  ;        *       ;        *       ;        *      ;        *       ;        *      ;        *     ",
"            ;                ;                ;               ;                ;               ;    ",
"                                                                                                    ",
"                                                                                                    ",
"                                                                                                    ",
"      *                *                *               *                *               *          ",
"      ;                ;                ;               ;                ;               ;          ",
"             *                *                *               *                *               *   ",
"            ;                ;                ;               ;                ;               ;    ",
"   *                *                *               *                *               *             ",
"    ;                ;                ;               ;                ;               ;            ",
"                                                                                                    "};
