/* XPM */
static char * Rare_Candy_xpm[] = {
"100 100 83 1",
" 	c #1EBC73",
".	c #26BD75",
"+	c #25BC79",
"@	c #37BE7A",
"#	c #1DBB76",
"$	c #18B390",
"%	c #31BE76",
"&	c #21BC73",
"*	c #91DB69",
"=	c #7CD26D",
"-	c #32BE72",
";	c #0EAF9B",
">	c #20BB76",
",	c #2DB690",
"'	c #32BE73",
")	c #7CD170",
"!	c #FFFFFF",
"~	c #202429",
"{	c #292429",
"]	c #94AEFF",
"^	c #6D80B7",
"/	c #202029",
"(	c #6879B7",
"_	c #CDE6F6",
":	c #758DEB",
"<	c #101831",
"[	c #EEF2FF",
"}	c #8BA5FF",
"|	c #A1BAF1",
"1	c #5A6175",
"2	c #4F63BD",
"3	c #9CBAFF",
"4	c #CDEAFF",
"5	c #7B8FDE",
"6	c #96B7F6",
"7	c #6A81DE",
"8	c #7B91E6",
"9	c #758FDE",
"0	c #29389C",
"a	c #5261CD",
"b	c #7B95EE",
"c	c #96B2F4",
"d	c #A1BBF1",
"e	c #94B6F6",
"f	c #5D6DD0",
"g	c #6271CD",
"h	c #7891E9",
"i	c #878998",
"j	c #202031",
"k	c #C5E2FF",
"l	c #5A6DD5",
"m	c #7891E3",
"n	c #5261BD",
"o	c #98B8F6",
"p	c #8095E0",
"q	c #99B8F6",
"r	c #7389EE",
"s	c #45508B",
"t	c #181829",
"u	c #293899",
"v	c #201C31",
"w	c #6276D0",
"x	c #4A59BD",
"y	c #444E75",
"z	c #8BB2FF",
"A	c #7B94E3",
"B	c #94B2F6",
"C	c #4F5EBD",
"D	c #354087",
"E	c #29349C",
"F	c #94B6FF",
"G	c #181C31",
"H	c #5265DE",
"I	c #5E75CD",
"J	c #5E73CD",
"K	c #94B2FF",
"L	c #202439",
"M	c #686B7B",
"N	c #4A59C5",
"O	c #3C4691",
"P	c #394683",
"Q	c #F6FAFF",
"R	c #5269DE",
"                 ...........+...@                           #$%& .                                  ",
"                           #$%& .  *                 #       %=- .  *                *              ",
"  *                 #       %=- .  ;        *      &%$#      &-& .  ;        *       ;        *     ",
"  ;        *      &%$#      &-& .            ;     -=%     #     .            ;                ;    ",
"            ;     -=%     #     .                  &-&    >,>    .                                  ",
"                  &-&    >,>    .                         ')'    .                                  ",
"                         ')'    .                         &-&    .                                  ",
"                         &-&    .      *                         .      *                *          ",
"      *                         .      ;             #           .      ;                ;          ",
"      ;             #           .             *     #$%&       # .             *                *   ",
"             *     #$%&       # .            ;       %=-      >,>.            ;                ;    ",
"            ;       %=-      >,>.   *                &-&      ')'.   *                *             ",
"   *                &-&      ')'.    ;                        &-&.    ;                ;            ",
"    ;                        &-&.                 ...............@                                  ",
"                 ...............@                                                                   ",
"                                                                                                    ",
"                                   *               *                *                *              ",
"  *               *                ;        *      ;        *       ;        *       ;        *     ",
"  ;        *      ;        *                 ;               ;                ;                ;    ",
"            ;               ;                                                                       ",
"                                                                                                    ",
"                                                                                                    ",
"                                       *               *                *                *          ",
"      *               *                ;               ;                ;                ;          ",
"      ;               ;                       *               *                *                *   ",
"             *               *               ;               ;                ;                ;    ",
"            ;               ;       *               *                *                *             ",
"   *               *                 ;               ;   !!!!!!!!     ;                ;            ",
"    ;               ;                                    !!!!!!!!                                   ",
"                                                       !!!!~~~~!!!!                                 ",
"                                                       !!!!~~~~!!!!                                 ",
"                                   *                *!!!!{{]]^^{{!!  *               *              ",
"  *                *               ;        *       ;!!!!{{]]^^{{!!  ;        *      ;        *     ",
"  ;        *       ;        *                ;       !!//((__::<<[[!!!!        ;               ;    ",
"            ;                ;                       !!//((__::<<[[!!!!                             ",
"                                             !!!!!!!!!!//}}__||11<<{{!!!!                           ",
"                                             !!!!!!!!!!//}}__||11<<{{!!!!                           ",
"                                       * !!!!!!{{{{{{{{22334455666677{{!!*               *          ",
"      *                *               ; !!!!!!{{{{{{{{22334455666677{{!!;               ;          ",
"      ;                ;               !!!!{{{{88888888990055aa668877{{!!       *               *   ",
"             *                *        !!!!{{{{88888888990055aa668877{{!!      ;               ;    ",
"            ;                ;      *  !!{{bbccddddeeffgghh0033hhhhiijj!!             *             ",
"   *                *                ; !!{{bbccddddeeffgghh0033hhhhiijj!!              ;            ",
"    ;                ;               !!!!{{cc44kkllmmeehhhh9999nnnnjj[[!!                           ",
"                                     !!!!{{cc44kkllmmeehhhh9999nnnnjj[[!!                           ",
"                 ...........+...@    !!{{88oo__llppqqqq6688rrss{{{{{{!!                             ",
"                           #$%& .  * !!{{88oo__llppqqqq6688rrss{{{{{{!!              *              ",
"  *                 #       %=- .  ; !!{{88ooooll__qqqq6688rrtt!!!!!!!!      *       ;        *     ",
"  ;        *      &%$#      &-& .    !!{{88ooooll__qqqq6688rrtt!!!!!!!!       ;                ;    ",
"            ;     -=%     #     .    !!{{7788uu88666666hhhhnn{{!!.                                  ",
"                  &-&    >,>    .    !!{{7788uu88666666hhhhnn{{!!.                                  ",
"                         ')' !!!!!!!!!!{{7788uu88666688hhggnn{{!!.                                  ",
"                         &-& !!!!!!!!!!{{7788uu88666688hhggnn{{!!.      *                *          ",
"      *                    !!!!vvvv~~~~wwxx00gghhhhhhhhggnn{{!!!!.      ;                ;          ",
"      ;             #      !!!!vvvv~~~~wwxx00gghhhhhhhhggnn{{!!!!.             *                *   ",
"                 ..........!!{{yyzz]]^^AABB00CCggggggggnnnn{{!!                                     ",
"                           !!{{yyzz]]^^AABB00CCggggggggnnnn{{!!                                     ",
"  *                 #      !!{{DDDDEEFF||__rrttnnnnnnnn{{{{!!!!     *                *              ",
"  ;        *      &%$#     !!{{DDDDEEFF||__rrttnnnnnnnn{{{{!!!!     ;        *       ;        *     ",
"            ;     -=%     #!!!!GGHHIIEE__::rrss{{{{{{{{!!!!!! ;               ;                ;    ",
"                  &-&    >,!!!!GGHHIIEE__::rrss{{{{{{{{!!!!!!                                       ",
"                         ')' !!!!{{gg00JJJJ__{{!!!!!!!!!!                                           ",
"                         &-& !!!!{{gg00JJJJ__{{!!!!!!!!!!                                           ",
"      *                        !!{{CC00EEKK__{{!!       *               *                *          ",
"      ;             #          !!{{CC00EEKK__{{!!       ;               ;                ;          ",
"             *     #$%&       #!!!!LLMMNNOOPP~~!!              *               *                *   ",
"            ;       %=-      >,!!!!LLMMNNOOPP~~!!             ;               ;                ;    ",
"   *                &-&      ')'.!!QQLL//NNRR~~!!    *               *                *             ",
"    ;                        &-&.!!QQLL//NNRR~~!!     ;               ;                ;            ",
"                 ...............@  !!!!!!{{{{!!!!                                                   ",
"                                   !!!!!!{{{{!!!!                                                   ",
"                                       !!!!!!!!                                                     ",
"  *               *                *   !!!!!!!!     *               *                *              ",
"  ;        *      ;        *       ;        *       ;        *      ;        *       ;        *     ",
"            ;               ;                ;                ;               ;                ;    ",
"                                                                                                    ",
"                                                                                                    ",
"                                                                                                    ",
"      *               *                *                *               *                *          ",
"      ;               ;                ;                ;               ;                ;          ",
"             *               *                *                *               *                *   ",
"            ;               ;                ;                ;               ;                ;    ",
"   *               *                *                *               *                *             ",
"    ;               ;                ;                ;               ;                ;            ",
"                                                                                                    ",
"                                                                                                    ",
"                                                                                                    ",
"  *                *                *               *                *               *              ",
"  ;        *       ;        *       ;        *      ;        *       ;        *      ;        *     ",
"            ;                ;                ;               ;                ;               ;    ",
"                                                                                                    ",
"                                                                                                    ",
"                                                                                                    ",
"      *                *                *               *                *               *          ",
"      ;                ;                ;               ;                ;               ;          ",
"             *                *                *               *                *               *   ",
"            ;                ;                ;               ;                ;               ;    ",
"   *                *                *               *                *               *             ",
"    ;                ;                ;               ;                ;               ;            ",
"                                                                                                    "};
