/* XPM */
static char * Tortipousse_xpm[] = {
"100 100 68 1",
" 	c #1EBC73",
".	c #26BD75",
"+	c #25BC79",
"@	c #37BE7A",
"#	c #1DBB76",
"$	c #18B390",
"%	c #31BE76",
"&	c #21BC73",
"*	c #91DB69",
"=	c #7CD26D",
"-	c #32BE72",
";	c #0EAF9B",
">	c #20BB76",
",	c #2DB690",
"'	c #32BE73",
")	c #7CD170",
"!	c #315F38",
"~	c #7BD66B",
"{	c #39A542",
"]	c #33623E",
"^	c #2C6437",
"/	c #344B2E",
"(	c #8C6B42",
"_	c #060000",
":	c #000000",
"<	c #B58452",
"[	c #101322",
"}	c #060F14",
"|	c #8C613E",
"1	c #76724D",
"2	c #5A7B42",
"3	c #AC753F",
"4	c #54462C",
"5	c #DEE78C",
"6	c #615847",
"7	c #BDCE84",
"8	c #6B5B4B",
"9	c #646142",
"0	c #5B7545",
"a	c #F7E75A",
"b	c #ACBC63",
"c	c #A9BA5E",
"d	c #634A39",
"e	c #94AD5A",
"f	c #9EB160",
"g	c #C6BD39",
"h	c #90A258",
"i	c #837129",
"j	c #FEFFFF",
"k	c #A8B764",
"l	c #A9B65E",
"m	c #A9B758",
"n	c #6A4F32",
"o	c #6D4D27",
"p	c #AFC137",
"q	c #C5BC3B",
"r	c #648043",
"s	c #60813A",
"t	c #657F42",
"u	c #132306",
"v	c #000500",
"w	c #5A9ECF",
"x	c #556050",
"y	c #534F29",
"z	c #4D4A15",
"A	c #534E16",
"B	c #584A1D",
"C	c #324554",
"                 ...........+...@                           #$%& .                                  ",
"                           #$%& .  *                 #       %=- .  *                *              ",
"  *                 #       %=- .  ;        *      &%$#      &-& .  ;        *       ;        *     ",
"  ;        *      &%$#      &-& .            ;     -=%     #     .            ;                ;    ",
"            ;     -=%     #     .                  &-&    >,>    .                                  ",
"                  &-&    >,>    .                         ')'    .                                  ",
"                         ')'    .                         &-&    .                                  ",
"                         &-&    .      *                         .      *                *          ",
"      *                         .      ;             #           .      ;                ;          ",
"      ;             #           .             *     #$%&       # .             *                *   ",
"             *     #$%&       # .            ;       %=-      >,>.            ;                ;    ",
"            ;       %=-      >,>.   *                &-&      ')'.   *                *             ",
"   *                &-&      ')'.!!!!!!                       &-&.    ;                ;            ",
"    ;                        &-&.!~~~~~!!!        ...............@                                  ",
"                 ...............@!~~~~~~~~!                 !!!!!!                                  ",
"                                 !~~~~~~~~~!             !!!~~~~~!                                  ",
"                                 !~~~~~~~~~~!      *    !~~~~~~~~!  *                *              ",
"  *               *              !~~~~~~~~~~{!     ; !!!!~~~~~~~~!  ;        *       ;        *     ",
"  ;        *      ;        *     !~~~~~~~~~{{]!     !{~~~~~~~~~~{!            ;                ;    ",
"            ;               ;     !~~~~~~~{{{^! !! !{{{~~~~~~~~{!                                   ",
"                                   !/~~~{{{{{{!!((!!{{{{~~~~~~{_                                    ",
"                                    :~{{{{{{{{{(<<({{{{{{~~~~~{_                                    ",
"                                     :{{{{{{{{{(<(({{{{{{{~~~{_         *                *          ",
"      *               *               :{{{{{{{{(<<{{{{{{{{{{{_          ;                ;          ",
"      ;               ;               ::{{{{{{{(<<{{{{{{{{{{_ *                *                *   ",
"             *               *          [}{{{{((<<({{{{{{{__ ;                ;                ;    ",
"            ;               ;       *   ::::{{(<<<({{{{{{_           *                *             ",
"   *               *                 ;    ::::(<((_______             ;                ;            ",
"    ;               ;                        :(<(_                                                  ",
"                                             _(<(_                                                  ",
"                                             (<<(_                                                  ",
"                                   *     ((((|<<(_  *                *               *              ",
"  *                *               ;  1((<<<<<<<<(_ ;        *       ;        *      ;        *     ",
"  ;        *       ;        *     222<(3((((<<<<<<<4          ;                ;               ;    ",
"            ;                ;   2555(<<<<((<<<<<<<<6                                               ",
"                               225555(<55555<<<<777<<8                                              ",
"                              2555555((555555((77777779                                             ",
"                             255555555555555577777777770*                *               *          ",
"      *                *    2555555555555555577777777777_                ;               ;          ",
"      ;                ;   27555555555555555777777777777_      *                *               *   ",
"             *            2775555555555555577777777777777_    ;                ;               ;    ",
"            ;             27755555555555557777777777777777_           *               *             ",
"   *                *    277755555555557777777777777777777_            ;               ;            ",
"    ;                ;  2777775555555577777777777777777777_                                         ",
"                        2777777777777777777777aaaab77777777_.+...@                                  ",
"                 .......277777777777777777777aaaaaac7777777_#$%& .                                  ",
"                       2777777777777777777777aa<ddaae777777: %=- .  *                *              ",
"  *                 #  2777f7777777777777777aa<<ddaae777777::&-& .  ;        *       ;        *     ",
"  ;        *      &%$# 277e27722777777777777ga<::daae777777::    .            ;                ;    ",
"            ;     -=%  277e277h2777777777777ggij:daak777777::    .                                  ",
"                  &-&  277ee77ee777777777777ggij:daal77777ddd    .                                  ",
"                       27777777e777777777777ggi::daam77eedaadd   .                                  ",
"                        27777777777777777777ggd::dag77eedaaaadd  .      *                *          ",
"      *                 27777777777777777777ggd:dgggeee2daaaaadd .      ;                ;          ",
"      ;             #   277777777777777777777gddggggeee2aaaaaaand.             *                *   ",
"                 ...... 2e77777777777777777777gggggeee2aaaaaaaaadd                                  ",
"                        22777777777777777777777ggggee2aaaaaaaaaadddddd                              ",
"  *                 #   22e777777777777777777777eeee2aaaaaaaaaadd::dddd              *              ",
"  ;        *      &%$# d22ee777777777777777eeeeeeee2aaaaaaaaaagdoo::dddd     *       ;        *     ",
"            ;     -=%  dgg2ee777777777777eeeeee2222gpaaaaaaaaqgdooo::dddd     ;                ;    ",
"                  &-&  dgg22eee7777777eeeeee222gggggggaaaaaagggdoooo:ddddd                          ",
"                       dggg22eee7777eee222222ggggggggggaaaaggggdoooo::dddd                          ",
"                        dggg22eeeeeeee22gggggggggggggggggaggggddoooo:::ddd:                         ",
"      *                 ddggg222eeeeee2ggggggggggggggggggggggdedoooo:::ddd:              *          ",
"      ;             #    dggggg222eee22gggggggggggggggggggggdeed:ooo:::ddd::             ;          ",
"             *     #$%&   dgggggg22222ggggggggggggggggggggddeeed:::o::::d::::  *                *   ",
"            ;       %=-    ddggggggggggggggggggggggggggdddeeeeeed:::::::::::: ;                ;    ",
"   *                &-&     ddgggggggggggggggggggggggdddeeeeeeeeeddd:::::::dd         *             ",
"    ;                        &ddggggggggggggggggggggddeeeee7eeeeeeeedddddddee          ;            ",
"                 ...............dddgggggggggggggggddeeeeee777eeeeeeeeeeeeeeee                       ",
"                                  ddddgggggggggdddeeeeeee7777eeeeeeeeeeeeeeee                       ",
"                                     dddddddddddeeeeerre777777erreeeeeeeeeeee                       ",
"  *               *                * !eeeeeeeeeeeeeeerre777777erreeeeereeeeee        *              ",
"  ;        *      ;        *       ; !eeeeeeeeeeeeeerrr7777777ereeeeerrreeeee*       ;        *     ",
"            ;               ;       !eeeeeeeereeeeerrr777777777eeeeeerreeeeee ;                ;    ",
"                                   !eeeeeeeerrreeeerrr7777777777eeeerreeeeeee                       ",
"                                  !ee7eeeeeerrreeeeerr7777777777e_rrreeeeeeee                       ",
"                                  !e77eeeeeerrseeeetrr7777777777e___eegeeeeee                       ",
"      *               *           !e77eeeeeer!!!!!!!ur7777777777e_  _gggeegee            *          ",
"      ;               ;            !e77aeeeer!      _r777gg7777e_   vggggggg!            ;          ",
"             *               *   w  !eaaaeggg!*     _r777aa77gg_    vggggggg!  *                *   ",
"            ;               ;       !eaaaggg!!      _gaa7aa7gag_     vggggg!  ;                ;    ",
"   *               *                !eaaggg!!       !ggaaaaaaag_     *vv!!!           *             ",
"    ;               ;               !eaggg!!         !ggaaaaagv       ;                ;            ",
"                                     !____!           !ggaaagv                                      ",
"                                                       xyzABv                                       ",
"                                                       C____                                        ",
"  *                *                *               *                *               *              ",
"  ;        *       ;        *       ;        *      ;        *       ;        *      ;        *     ",
"            ;                ;                ;               ;                ;               ;    ",
"                                                                                                    ",
"                                                                                                    ",
"                                                                                                    ",
"      *                *                *               *                *               *          ",
"      ;                ;                ;               ;                ;               ;          ",
"             *                *                *               *                *               *   ",
"            ;                ;                ;               ;                ;               ;    ",
"   *                *                *               *                *               *             ",
"    ;                ;                ;               ;                ;               ;            ",
"                                                                                                    "};
