/* XPM */
static char * transition_Pingoleon_xpm[] = {
"100 100 17 1",
" 	c #1EBC73",
".	c #26BD75",
"+	c #25BC79",
"@	c #37BE7A",
"#	c #1DBB76",
"$	c #18B390",
"%	c #31BE76",
"&	c #21BC73",
"*	c #91DB69",
"=	c #7CD26D",
"-	c #32BE72",
";	c #0EAF9B",
">	c #20BB76",
",	c #2DB690",
"'	c #FFFFFF",
")	c #32BE73",
"!	c #7CD170",
"                 ...........+...@                           #$%& .                                  ",
"                           #$%& .  *                 #       %=- .  *                *              ",
"  *                 #       %=- .  ;        *      &%$#      &-& .  ;        *       ;        *     ",
"  ;        *      &%$#      &-& .            ;     -=%     #     .            ;                ;    ",
"            ;     -=%     #     .                  &-&    >,>    .                                  ",
"                  &-&    >,>    .          ''''           )!)    .                                  ",
"                         )!)    .         ''''''          &-&    .                                  ",
"                         &-&    .      * '''''''                 .      *                *          ",
"      *                         .      ;''''''''     #           .      ;                ;          ",
"      ;             #          '''     '''''''''    #$%&       # .             *                *   ",
"             *     #$%&       ''''' ''''''''''''     %=-      >,>.            ;                ;    ",
"            ;       %=-      '''''''''''''''''''     &-&      )!).   *                *             ",
"   *                &-&      ''''''''''''''''''''             &-&.    ;                ;            ",
"    ;                        ''''''''''''''''''''''''............@                                  ",
"                 ............'''''''''''''''''''''''''                                              ",
"                             '''''''''''''''''''''''''''                                            ",
"                            ''''''''''''''''''''''''''''''''        *                *              ",
"  *               *        '''''''''''''''''''''''''''''''''''      ;        *       ;        *     ",
"  ;        *      ;        '''''''''''''''''''''''''''''''''''                ;                ;    ",
"            ;             '''''''''''''''''''''''''''''''''''''                                     ",
"                          ''''''''''''''''''''''''''''''''''''''                                    ",
"                         '''''''''''''''''''''''''''''''''''''''                                    ",
"                         '''''''''''''''''''''''''''''''''''''''        *                *          ",
"      *               *  '''''''''''''''''''''''''''''''''''''''        ;                ;          ",
"      ;               ;  '''''''''''''''''''''''''''''''''''''''               *                *   ",
"             *           '''''''''''''''''''''''''''''''''''''''              ;                ;    ",
"            ;            '''''''''''''''''''''''''''''''''''''''  '''''               *             ",
"   *               *     ''''''''''''''''''''''''''''''''''''''' ''''''                ;            ",
"    ;               ;    ''''''''''''''''''''''''''''''''''''''''''''''                             ",
"                         ''''''''''''''''''''''''''''''''''''''''''''''                             ",
"                         ''''''''''''''''''''''''''''''''''''''''''''''                             ",
"                         ''''''''''''''''''''''''''''''''''''''''''''''              *              ",
"  *                *     ''''''''''''''''''''''''''''''''''''''''''''''       *      ;        *     ",
"  ;        *       ;      '''''''''''''''''''''''''''''''''''''''''''''        ;               ;    ",
"            ;             '''''''''''''''''''''''''''''''''''''''''''''                             ",
"                          '''''''''''''''''''''''''''''''''''''''''''''                             ",
"                          ''''''''''''''''''''''''''''''''''''''''''''                              ",
"                           ''''''''''''''''''''''''''''''''''''''''''    *               *          ",
"      *                * ''''''''''''''''''''''''''''''''''''''''''''    ;               ;          ",
"      ;                ''''''''''''''''''''''''''''''''''''''''''''''           *               *   ",
"             *      '''''''''''''''''''''''''''''''''''''''''''''''''          ;               ;    ",
"            ;      '''''''''''''''''''''''''''''''''''''''''''''''''' *               *             ",
"   *              '''''''''''''''''''''''''''''''''''''''''''''''''''  ;               ;            ",
"    ;            '''''''''''''''''''''''''''''''''''''''''''''''''''''                              ",
"                ''''''''''''''''''''''''''''''''''''''''''''''''''''''                              ",
"              '''''''''''''''''''''''''''''''''''''''''''''''''''''''''                             ",
"             '''''''''''''''''''''''''''''''''''''''''''''''''''''''''''             *              ",
"  *          ''''''''''''''''''''''''''''''''''''''''''''''''''''''''''''    *       ;        *     ",
"  ;        *'''''''''''''''''''''''''''''''''''''''''''''''''''''''''''''''   ;                ;    ",
"           ''''''''''''''''''''''''''''''''''''''''''''''''''''''''''''''''''                       ",
"          ''''''''''''''''''''''''''''''''''''''''''''''''''''''''''''''''''''                      ",
"        '''''''''''''''''''''''''''''''''''''''''''''''''''''''''''''''''''''''                     ",
"        ''''''''''''''''''''''''''''''''''''''''''''''''''''''''''''''''''''''''         *          ",
"      * '''''''''''''''''''''''''''''''''''''''''''''''''''''''''''''''''''''''''        ;          ",
"      ; ''''''''''''''''''''''''''''''''''''''''''''''''''''''''''''''''''''''''''              *   ",
"        '''''''''''''''''''''''''''''''''''''''''''''''''''''''''''''''''''''''''''                 ",
"        '''''''''''''''''''''''''''''''''''''''''''''''''''''''''''''''''''''''''''                 ",
"  *     '''''''''''''''''''''''''''''''''''''''''''''''''''''''''''''''''''''''''''' *              ",
"  ;     '''''''''''%'''''''''''''''''''''''''''''''''''''''''''''''''''''''''''''''' ;        *     ",
"            '''''''=''''''''''''''''''''''''''''''''''''''''''''''''''''''''''''''''           ;    ",
"            ''''''&-'''''''''''''''''''''''''''''''''''''''''''''''''''''''''''''''''               ",
"             ''''   ''''''''''''''''''''''''''''''''''''''''''''''''''''''''''''''''''              ",
"              ''    ''''''''''''''''''''''''''''''''''''''''''''''''''''''''''''''''''              ",
"      *             '''''''''''''''''''''''''''''''''''''''''''''''''''''''''''''''''''  *          ",
"      ;             '''''''''''''''''''''''''''''''''''''''''''''''''''''''''''''''''''  ;          ",
"             *     #$''''''''''''''''''''''''''''''''''''''''''''''''''''''''''''''''''         *   ",
"            ;       %='''''''''''''''''''''''''''''''''''''''''''''''''''''''''''''''''        ;    ",
"   *                &-&''''''''''''''''''''''''''''''''''''''''''''''''''''''''''''''''             ",
"    ;                   ''''''''''''''''''''''''''''''''''''''''''''''''''''''''''''''';            ",
"                 ........'''''''''''''''''''''''''''''''''''''''''''''''''''''''''''''''            ",
"                          '''''''''''''''''''''''''''''''''''''''''''''''''''''''''''''''           ",
"                          ''''''''''''''''''''''''''''''''''''''''''''''''''''''''''''''''          ",
"  *               *       ''''''''''''''''''''''''''''''''''''''''''''''''''''''''''''''''          ",
"  ;        *      ;     '''''''''''''''''''''''''''''''''''''''''''''''''''''''''''''''''''   *     ",
"            ;          '''''''''''''''''''''''''''''''''''''''''''''''''''''''''''''''''''''   ;    ",
"                      ''''''''''''''''''''''''''''''''''''''''''''''''''''''''''''''''''''''        ",
"                      ''''''''''''''''''''''''''''''''''''''''''''''''''''''''''''''''''''''        ",
"                      ''''''''''''''''''''''''''''''''''''''''''''''''''''''''''''''''''''''        ",
"      *               ''''''''''''''''''''''''''''''''''''''''''''''''''''''''''''''''''''''        ",
"      ;               '''''''''''''''''''''''''''''''''''''''''''''''   ''''''''''''''''''''        ",
"             *         ''''''''''''''''''''''''''''''''''''''''''''''   ''''''''''''''''''''    *   ",
"            ;           '''''''''''''''''''''''''''''''''''''''''''''    '''''''''''''''''''   ;    ",
"   *               *      '''''''''''''''''''''''''''''''''''''''''''*    ''''''''''''''''''        ",
"    ;               ;      '''''''''''''''''''''''''''''''''''''''''' ;    '''''''''''''''''        ",
"                              ''''''''   ''''''''''''''''''''''''''''       ''''''''''''''''        ",
"                               '''''''    '''''''''''''''''''''''''''        '''''''''''''''        ",
"                                '''''       ''''''''''''''''''''''''          ''''''''''''''        ",
"  *                *                *        ''''''''''''''''''''''  *            ''''''''''        ",
"  ;        *       ;        *       ;        ''''''''''''''''''''''  ;        *     ''''''''  *     ",
"            ;                ;               ''''''''''''''''''''''            ;       '''''   ;    ",
"                                              ''''''''''''''''''''                                  ",
"                                               '''''''''''''''''''                                  ",
"                                                '''''''''''''''''                                   ",
"      *                *                *        '''''''''''''''         *               *          ",
"      ;                ;                ;               ;                ;               ;          ",
"             *                *                *               *                *               *   ",
"            ;                ;                ;               ;                ;               ;    ",
"   *                *                *               *                *               *             ",
"    ;                ;                ;               ;                ;               ;            ",
"                                                                                                    "};
